<mxfile host="app.diagrams.net" agent="Mozilla/5.0 (Windows NT 10.0; Win64; x64) AppleWebKit/537.36 (KHTML, like Gecko) Chrome/131.0.0.0 Safari/537.36" version="24.8.6">
  <diagram name="Page-1" id="DNe7bdjcsITiFmNubsdb">
    <mxGraphModel dx="2266" dy="818" grid="1" gridSize="10" guides="1" tooltips="1" connect="1" arrows="1" fold="1" page="1" pageScale="1" pageWidth="1400" pageHeight="850" math="0" shadow="0">
      <root>
        <mxCell id="0" />
        <mxCell id="1" parent="0" />
        <mxCell id="rYqSU0_YD1WcTbU8GYVV-1" value="In Cart" style="rounded=1;whiteSpace=wrap;html=1;" vertex="1" parent="1">
          <mxGeometry x="180" y="85" width="120" height="60" as="geometry" />
        </mxCell>
        <mxCell id="rYqSU0_YD1WcTbU8GYVV-2" value="" style="ellipse;html=1;shape=startState;fillColor=#000000;strokeColor=#000000;" vertex="1" parent="1">
          <mxGeometry y="100" width="30" height="30" as="geometry" />
        </mxCell>
        <mxCell id="rYqSU0_YD1WcTbU8GYVV-3" value="" style="edgeStyle=orthogonalEdgeStyle;html=1;verticalAlign=bottom;endArrow=open;endSize=8;strokeColor=#000000;rounded=0;entryX=0;entryY=0.5;entryDx=0;entryDy=0;" edge="1" source="rYqSU0_YD1WcTbU8GYVV-2" parent="1" target="rYqSU0_YD1WcTbU8GYVV-1">
          <mxGeometry relative="1" as="geometry">
            <mxPoint x="65" y="175" as="targetPoint" />
            <Array as="points">
              <mxPoint x="120" y="115" />
              <mxPoint x="120" y="115" />
            </Array>
          </mxGeometry>
        </mxCell>
        <mxCell id="rYqSU0_YD1WcTbU8GYVV-29" value="User adds to cart" style="edgeLabel;html=1;align=center;verticalAlign=middle;resizable=0;points=[];" vertex="1" connectable="0" parent="rYqSU0_YD1WcTbU8GYVV-3">
          <mxGeometry x="-0.1636" y="-4" relative="1" as="geometry">
            <mxPoint as="offset" />
          </mxGeometry>
        </mxCell>
        <mxCell id="rYqSU0_YD1WcTbU8GYVV-5" value="Transferred to User" style="rounded=1;whiteSpace=wrap;html=1;" vertex="1" parent="1">
          <mxGeometry x="180" y="250" width="120" height="60" as="geometry" />
        </mxCell>
        <mxCell id="rYqSU0_YD1WcTbU8GYVV-8" value="Removed" style="rounded=1;whiteSpace=wrap;html=1;" vertex="1" parent="1">
          <mxGeometry x="610" y="170" width="120" height="60" as="geometry" />
        </mxCell>
        <mxCell id="rYqSU0_YD1WcTbU8GYVV-10" value="" style="edgeStyle=orthogonalEdgeStyle;rounded=0;orthogonalLoop=1;jettySize=auto;html=1;endArrow=open;endFill=0;endSize=8;exitX=1;exitY=0.5;exitDx=0;exitDy=0;entryX=0;entryY=0.5;entryDx=0;entryDy=0;" edge="1" parent="1" source="rYqSU0_YD1WcTbU8GYVV-8" target="rYqSU0_YD1WcTbU8GYVV-9">
          <mxGeometry relative="1" as="geometry">
            <mxPoint x="790" y="280" as="targetPoint" />
          </mxGeometry>
        </mxCell>
        <mxCell id="rYqSU0_YD1WcTbU8GYVV-9" value="" style="ellipse;html=1;shape=endState;fillColor=#000000;strokeColor=#000000;" vertex="1" parent="1">
          <mxGeometry x="780" y="185" width="30" height="30" as="geometry" />
        </mxCell>
        <mxCell id="rYqSU0_YD1WcTbU8GYVV-13" value="" style="edgeStyle=orthogonalEdgeStyle;html=1;verticalAlign=bottom;endArrow=open;endSize=8;strokeColor=#000000;rounded=0;entryX=0.5;entryY=0;entryDx=0;entryDy=0;exitX=1;exitY=0.5;exitDx=0;exitDy=0;" edge="1" parent="1" source="rYqSU0_YD1WcTbU8GYVV-1" target="rYqSU0_YD1WcTbU8GYVV-8">
          <mxGeometry relative="1" as="geometry">
            <mxPoint x="555" y="205" as="targetPoint" />
            <mxPoint x="480" y="250" as="sourcePoint" />
            <Array as="points">
              <mxPoint x="670" y="115" />
              <mxPoint x="670" y="170" />
            </Array>
          </mxGeometry>
        </mxCell>
        <mxCell id="rYqSU0_YD1WcTbU8GYVV-14" value="Remove Ticket From Cart" style="edgeLabel;html=1;align=center;verticalAlign=middle;resizable=0;points=[];" vertex="1" connectable="0" parent="rYqSU0_YD1WcTbU8GYVV-13">
          <mxGeometry x="-0.0974" relative="1" as="geometry">
            <mxPoint as="offset" />
          </mxGeometry>
        </mxCell>
        <mxCell id="rYqSU0_YD1WcTbU8GYVV-17" value="" style="edgeStyle=orthogonalEdgeStyle;html=1;verticalAlign=bottom;endArrow=open;endSize=8;strokeColor=#000000;rounded=0;entryX=0.5;entryY=0;entryDx=0;entryDy=0;exitX=0.5;exitY=1;exitDx=0;exitDy=0;" edge="1" parent="1" source="rYqSU0_YD1WcTbU8GYVV-1" target="rYqSU0_YD1WcTbU8GYVV-5">
          <mxGeometry relative="1" as="geometry">
            <mxPoint x="190" y="125" as="targetPoint" />
            <mxPoint x="20" y="125" as="sourcePoint" />
            <Array as="points" />
          </mxGeometry>
        </mxCell>
        <mxCell id="rYqSU0_YD1WcTbU8GYVV-18" value="Text" style="edgeLabel;html=1;align=center;verticalAlign=middle;resizable=0;points=[];" vertex="1" connectable="0" parent="rYqSU0_YD1WcTbU8GYVV-17">
          <mxGeometry x="-0.1294" y="1" relative="1" as="geometry">
            <mxPoint as="offset" />
          </mxGeometry>
        </mxCell>
        <mxCell id="rYqSU0_YD1WcTbU8GYVV-19" value="Purchase Tickets in Cart" style="edgeLabel;html=1;align=center;verticalAlign=middle;resizable=0;points=[];" vertex="1" connectable="0" parent="rYqSU0_YD1WcTbU8GYVV-17">
          <mxGeometry x="-0.1059" y="4" relative="1" as="geometry">
            <mxPoint as="offset" />
          </mxGeometry>
        </mxCell>
        <mxCell id="rYqSU0_YD1WcTbU8GYVV-20" value="" style="edgeStyle=orthogonalEdgeStyle;html=1;verticalAlign=bottom;endArrow=open;endSize=8;strokeColor=#000000;rounded=0;entryX=0.5;entryY=1;entryDx=0;entryDy=0;exitX=1;exitY=0.5;exitDx=0;exitDy=0;" edge="1" parent="1" source="rYqSU0_YD1WcTbU8GYVV-5" target="rYqSU0_YD1WcTbU8GYVV-8">
          <mxGeometry relative="1" as="geometry">
            <mxPoint x="840" y="180" as="targetPoint" />
            <mxPoint x="310" y="125" as="sourcePoint" />
            <Array as="points">
              <mxPoint x="670" y="280" />
              <mxPoint x="670" y="230" />
            </Array>
          </mxGeometry>
        </mxCell>
        <mxCell id="rYqSU0_YD1WcTbU8GYVV-21" value="Cancel Ticket more than 72 hours before showtime" style="edgeLabel;html=1;align=center;verticalAlign=middle;resizable=0;points=[];" vertex="1" connectable="0" parent="rYqSU0_YD1WcTbU8GYVV-20">
          <mxGeometry x="-0.0974" relative="1" as="geometry">
            <mxPoint as="offset" />
          </mxGeometry>
        </mxCell>
        <mxCell id="rYqSU0_YD1WcTbU8GYVV-26" value="" style="edgeStyle=orthogonalEdgeStyle;rounded=0;orthogonalLoop=1;jettySize=auto;html=1;endArrow=open;endFill=0;endSize=8;entryX=0.5;entryY=0;entryDx=0;entryDy=0;exitX=0.5;exitY=1;exitDx=0;exitDy=0;" edge="1" parent="1" source="rYqSU0_YD1WcTbU8GYVV-5" target="rYqSU0_YD1WcTbU8GYVV-27">
          <mxGeometry relative="1" as="geometry">
            <mxPoint x="300" y="470" as="targetPoint" />
            <mxPoint x="360" y="350" as="sourcePoint" />
          </mxGeometry>
        </mxCell>
        <mxCell id="rYqSU0_YD1WcTbU8GYVV-27" value="" style="ellipse;html=1;shape=endState;fillColor=#000000;strokeColor=#000000;" vertex="1" parent="1">
          <mxGeometry x="225" y="395" width="30" height="30" as="geometry" />
        </mxCell>
        <mxCell id="rYqSU0_YD1WcTbU8GYVV-28" value="&lt;font style=&quot;font-size: 20px;&quot;&gt;State Transition Diagram: Ticket&lt;/font&gt;" style="text;html=1;align=center;verticalAlign=middle;whiteSpace=wrap;rounded=0;" vertex="1" parent="1">
          <mxGeometry x="260" width="250" height="50" as="geometry" />
        </mxCell>
      </root>
    </mxGraphModel>
  </diagram>
</mxfile>
